<svg width="31" height="27" viewBox="0 0 31 27" fill="none" xmlns="http://www.w3.org/2000/svg">
<path d="M25.3952 11.7925C24.9787 14.0781 23.7795 16.1474 22.0033 17.645C20.2272 19.1427 17.985 19.9751 15.6619 19.9995C13.3387 20.0238 11.0796 19.2385 9.27249 17.7784C7.46536 16.3183 6.22301 14.2746 5.75879 11.9981L8.20633 11.499C8.5546 13.2068 9.48662 14.74 10.8423 15.8354C12.1981 16.9308 13.8929 17.5199 15.6357 17.5017C17.3785 17.4834 19.0606 16.8589 20.3931 15.7354C21.7256 14.6118 22.6253 13.0594 22.9377 11.3447L25.3952 11.7925Z" fill="black" fill-opacity="0.4"/>
<line x1="15.5571" y1="22" x2="15.5571" y2="27" stroke="black" stroke-opacity="0.4" stroke-width="2"/>
<line y1="-1" x2="5" y2="-1" transform="matrix(-0.82587 0.563861 0.563861 0.82587 6.12939 17.585)" stroke="black" stroke-opacity="0.4" stroke-width="2"/>
<line x1="25.5643" y1="16.7591" x2="29.6937" y2="19.5784" stroke="black" stroke-opacity="0.4" stroke-width="2"/>
<line y1="-1" x2="5" y2="-1" transform="matrix(-0.516519 0.856275 0.856275 0.516519 10.8569 21.1465)" stroke="black" stroke-opacity="0.4" stroke-width="2"/>
<line x1="21.1302" y1="20.63" x2="23.7128" y2="24.9113" stroke="black" stroke-opacity="0.4" stroke-width="2"/>
</svg>
