<svg width="31" height="22" viewBox="0 0 31 22" fill="none" xmlns="http://www.w3.org/2000/svg">
<line x1="15.5728" y1="5" x2="15.5728" y2="-1.31134e-07" stroke="black" stroke-width="2"/>
<line y1="-1" x2="5" y2="-1" transform="matrix(0.82587 -0.563861 -0.563861 -0.82587 25.0005 9.41504)" stroke="black" stroke-width="2"/>
<line x1="5.56553" y1="10.2409" x2="1.43618" y2="7.4216" stroke="black" stroke-width="2"/>
<line y1="-1" x2="5" y2="-1" transform="matrix(0.51652 -0.856275 -0.856275 -0.51652 20.2729 5.85352)" stroke="black" stroke-width="2"/>
<line x1="9.99968" y1="6.37004" x2="7.41708" y2="2.08866" stroke="black" stroke-width="2"/>
<path d="M6.00083 14.3228C6.41726 12.0372 7.61654 9.96788 9.39268 8.47026C11.1688 6.97264 13.411 6.14018 15.7341 6.11585C18.0573 6.09151 20.3164 6.87682 22.1235 8.33691C23.9306 9.797 25.173 11.8407 25.6372 14.1172C24.2855 14.3928 22.9983 13.4834 22.296 12.296C21.8435 11.531 21.2553 10.8468 20.5537 10.2799C19.1979 9.18452 17.5031 8.59537 15.7603 8.61362C14.0175 8.63188 12.3354 9.2564 11.0029 10.3799C10.3133 10.9614 9.73955 11.6578 9.30318 12.4321C8.62587 13.6339 7.35805 14.5701 6.00083 14.3228Z" fill="black"/>
<path d="M7.22956 13.2239C6.55095 13.3475 6.09353 14.0015 6.30075 14.6594C6.86789 16.4601 7.93637 18.0724 9.39268 19.3003C11.1688 20.7979 13.411 21.6304 15.7341 21.6547C18.0573 21.6791 20.3164 20.8937 22.1235 19.4337C23.6052 18.2365 24.7072 16.6469 25.312 14.8585C25.5329 14.2051 25.0893 13.5417 24.4134 13.4039C23.7376 13.266 23.0876 13.7081 22.8396 14.3517C22.3689 15.5738 21.5835 16.6586 20.5537 17.4907C19.1979 18.5861 17.5031 19.1752 15.7603 19.1569C14.0175 19.1387 12.3354 18.5142 11.0029 17.3906C9.99066 16.5372 9.22817 15.4361 8.78317 14.2045C8.54878 13.5558 7.90817 13.1002 7.22956 13.2239Z" fill="black"/>
<circle cx="16" cy="14" r="3" fill="black"/>
</svg>
