<svg width="179" height="59" viewBox="0 0 179 59" fill="none" xmlns="http://www.w3.org/2000/svg">
<path d="M24.2547 1.92C27.9347 2.13333 30.9747 3.62666 33.3747 6.4C35.828 9.17333 37.0547 13.3333 37.0547 18.88C37.0547 22.5067 36.2814 25.3867 34.7347 27.52C33.188 29.6533 31.4014 31.1467 29.3747 32C27.348 32.8 25.5614 33.2 24.0147 33.2C22.5747 33.2 20.148 33.36 16.7347 33.68C14.7614 33.8933 13.1614 34.0267 11.9347 34.08C11.828 38.9867 11.7747 42.32 11.7747 44.08C11.7747 51.0133 11.8547 54.7733 12.0147 55.36C12.1214 55.8933 12.0147 56.3733 11.6947 56.8C11.428 57.1733 11.0547 57.44 10.5747 57.6C10.148 57.7067 9.74803 57.68 9.37469 57.52C9.21469 57.4667 8.76136 57.44 8.01469 57.44C6.41469 57.44 4.70802 57.5467 2.89469 57.76C2.04136 57.8667 1.48136 57.7067 1.21469 57.28C0.948024 56.8 0.814691 56.08 0.814691 55.12C0.814691 53.9467 0.841357 52.88 0.894691 51.92L0.974691 45.2L1.13469 35.76C1.45469 24.4533 1.61469 15.6267 1.61469 9.28C1.61469 7.36 1.58802 6.21333 1.53469 5.84C1.42802 4.66667 1.37469 3.97333 1.37469 3.76C1.37469 2.37333 1.66802 1.68 2.25469 1.68C2.52136 1.68 3.05469 1.70666 3.85469 1.76C4.70802 1.81333 5.88136 1.84 7.37469 1.84C7.80136 1.84 8.89469 1.81333 10.6547 1.76C12.4147 1.70666 14.2547 1.68 16.1747 1.68C19.0014 1.68 21.6947 1.76 24.2547 1.92ZM21.7747 27.44C23.748 27.44 25.588 26.8533 27.2947 25.68C29.0014 24.5067 29.8547 22.4 29.8547 19.36C29.8547 16.1067 29.188 13.6533 27.8547 12C26.5214 10.2933 24.5747 9.2 22.0147 8.72C18.0147 7.92 14.868 7.6 12.5747 7.76C12.5747 9.25333 12.548 10.3733 12.4947 11.12C12.388 14.1067 12.2547 16.24 12.0947 17.52C11.8814 19.3867 11.828 21.4933 11.9347 23.84L12.0947 26.96L15.8547 27.2C17.2947 27.36 19.268 27.44 21.7747 27.44Z" fill="#3180AE"/>
<path d="M48.2972 4.56C48.1372 5.73333 48.0039 8.74667 47.8972 13.6C47.8972 15.0933 47.7905 18.88 47.5772 24.96C47.3639 30.8267 47.2572 34.4 47.2572 35.68C47.2572 38.7733 47.3105 42.6933 47.4172 47.44C47.5239 52.1333 47.6305 54.9333 47.7372 55.84C47.7905 56.16 47.8172 56.5333 47.8172 56.96C47.8172 57.3333 47.7372 57.6 47.5772 57.76C47.4705 57.92 47.2839 58.08 47.0172 58.24C46.6972 58.4533 45.8705 58.56 44.5372 58.56C44.3239 58.56 43.9772 58.56 43.4972 58.56C43.0705 58.56 42.8039 58.5067 42.6972 58.4C42.5905 58.2933 42.5372 58.08 42.5372 57.76L42.6172 55.2L42.7772 44.72L42.9372 27.92C42.9372 26.32 43.0439 22.6933 43.2572 17.04C43.3105 15.7067 43.3905 13.5467 43.4972 10.56C43.6039 7.52 43.6039 5.73333 43.4972 5.2L43.4172 3.52C43.4172 2.13333 43.8439 1.44 44.6972 1.44L47.6572 1.52C48.1905 1.52 48.4572 1.89333 48.4572 2.64C48.4572 2.90666 48.4305 3.22666 48.3772 3.6C48.3239 3.92 48.2972 4.24 48.2972 4.56Z" fill="#F28FAE"/>
<path d="M74.8828 14.48C73.5495 14.48 72.2161 15.04 70.8828 16.16C69.6028 17.28 68.5095 19.1467 67.6028 21.76C66.6961 24.32 66.2428 27.6267 66.2428 31.68C66.2428 35.6267 66.8028 38.7733 67.9228 41.12C69.0961 43.4133 70.4028 45.0133 71.8428 45.92C73.3361 46.8267 74.6161 47.28 75.6828 47.28C76.6428 47.28 77.6295 46.96 78.6428 46.32C79.6561 45.6267 80.5361 44.9067 81.2828 44.16C81.3895 44.0533 81.5495 43.8667 81.7628 43.6C82.0295 43.3333 82.2695 43.2 82.4828 43.2C82.7495 43.2 83.0695 43.3067 83.4428 43.52L90.2428 47.28C90.4561 47.3867 90.7761 47.5467 91.2028 47.76C91.6828 47.92 92.0028 48.08 92.1628 48.24C92.3761 48.4 92.4828 48.6133 92.4828 48.88C92.4828 49.1467 92.4028 49.44 92.2428 49.76C91.0695 51.7333 89.2295 53.76 86.7228 55.84C84.2161 57.92 80.7495 58.96 76.3228 58.96C72.8561 58.96 69.5228 57.68 66.3228 55.12C63.1761 52.5067 60.6428 48.96 58.7228 44.48C56.8028 40 55.8428 35.0667 55.8428 29.68C55.8428 24.3467 56.7495 19.5467 58.5628 15.28C60.4295 11.0133 62.8028 7.68 65.6828 5.28C68.5628 2.88 71.5228 1.68 74.5628 1.68C78.3495 1.68 81.3895 2.48 83.6828 4.08C86.0295 5.62666 87.7095 7.12 88.7228 8.56C88.9361 8.88 89.1228 9.17333 89.2828 9.44C89.4961 9.70666 89.6028 9.97333 89.6028 10.24C89.6028 10.56 89.3095 10.9867 88.7228 11.52C86.2695 13.44 84.5095 15.12 83.4428 16.56C82.9095 17.2533 82.4561 17.7867 82.0828 18.16C81.7095 18.48 81.3361 18.64 80.9628 18.64C80.5895 18.64 80.1628 18.3733 79.6828 17.84C78.5628 16.6133 77.6828 15.76 77.0428 15.28C76.4561 14.7467 75.7361 14.48 74.8828 14.48Z" fill="#FBB114"/>
<path d="M120.908 30.16C124.002 31.28 127.175 33.1733 130.428 35.84C133.735 38.4533 135.388 42.3733 135.388 47.6C135.388 51.0133 134.162 53.52 131.708 55.12C129.308 56.6667 126.855 57.6 124.348 57.92C121.895 58.1867 119.308 58.32 116.588 58.32L108.828 58.48L103.948 58.56C103.095 58.56 102.508 58.2933 102.188 57.76C101.868 57.2267 101.708 56.48 101.708 55.52L101.788 37.76V33.92C101.788 31.8933 101.868 30.0533 102.028 28.4L102.268 18.64C102.268 17.52 102.295 15.8667 102.348 13.68C102.402 11.44 102.455 10.0267 102.508 9.44C102.562 9.01333 102.588 8.26666 102.588 7.2C102.588 5.33333 102.508 4 102.348 3.2C102.295 3.09333 102.268 2.96 102.268 2.8C102.268 2.48 102.562 2.24 103.148 2.08C103.682 1.92 105.095 1.70667 107.388 1.44C109.682 1.12 111.762 0.959995 113.628 0.959995C118.695 0.959995 122.695 1.97333 125.628 4C128.615 6.02667 130.108 9.86666 130.108 15.52C130.108 20.64 128.562 24.64 125.468 27.52C124.082 28.6933 122.562 29.5733 120.908 30.16ZM112.188 26.08C112.188 26.6133 112.162 27.0933 112.108 27.52C112.055 27.8933 112.028 28.1867 112.028 28.4C112.028 28.72 112.055 28.9333 112.108 29.04C112.162 29.0933 112.322 29.12 112.588 29.12C113.655 29.12 115.308 28.8267 117.548 28.24C119.788 27.6533 121.948 26.4 124.028 24.48C126.108 22.56 127.148 19.7867 127.148 16.16C127.148 12.32 126.482 9.46666 125.148 7.6C123.815 5.73333 122.135 4.56 120.108 4.08C118.135 3.54667 115.602 3.28 112.508 3.28L112.348 8.4C112.242 12.24 112.188 15.0933 112.188 16.96V26.08ZM114.668 56.8C119.895 56.8 123.815 55.9733 126.428 54.32C129.042 52.6133 130.348 50.3467 130.348 47.52C130.348 40.3733 127.282 35.52 121.148 32.96C118.428 31.9467 115.362 31.4667 111.948 31.52C111.895 31.68 111.868 31.8933 111.868 32.16C111.815 32.4267 111.788 33.04 111.788 34L111.948 39.12L112.108 43.44C112.108 44.1867 112.082 44.72 112.028 45.04L111.948 47.12L112.108 51.84L112.268 55.52C112.268 56.16 112.375 56.56 112.588 56.72C112.855 56.8267 113.202 56.88 113.628 56.88C114.108 56.8267 114.455 56.8 114.668 56.8Z" fill="#EB5F34"/>
<path d="M152.006 4.56C152.539 6.42666 153.233 8.64 154.086 11.2L154.646 13.04C155.446 15.76 156.086 17.6533 156.566 18.72C157.259 20.32 158.006 22.3467 158.806 24.8C159.659 27.36 160.086 28.64 160.086 28.64L160.726 26.64C161.046 25.4667 161.419 24.32 161.846 23.2L162.726 20.8L163.526 18.72C163.526 18.72 163.793 18.0267 164.326 16.64C164.753 15.4667 165.073 14.6933 165.286 14.32C165.713 13.4667 166.219 12.1067 166.806 10.24C167.446 8.32 167.926 6.61333 168.246 5.12C168.513 4.05333 168.833 3.38666 169.206 3.12C169.633 2.85333 170.059 2.74666 170.486 2.8C170.913 2.8 171.179 2.8 171.286 2.8C171.446 2.8 172.113 2.8 173.286 2.8C174.459 2.74666 175.473 2.77333 176.326 2.88C177.446 3.04 178.006 3.30666 178.006 3.68C178.006 3.73333 177.953 3.97333 177.846 4.4C177.739 4.66667 177.606 5.01333 177.446 5.44C177.339 5.81333 177.206 6.24 177.046 6.72C175.766 10.5067 174.939 12.8267 174.566 13.68C173.606 16.0267 172.433 18.96 171.046 22.48C169.713 26 168.566 29.04 167.606 31.6C166.966 33.4667 165.526 37.1733 163.286 42.72C161.366 47.3067 160.326 49.9467 160.166 50.64C159.953 51.28 159.713 52.32 159.446 53.76C159.233 55.1467 159.073 56.0533 158.966 56.48C158.699 57.6 158.273 58.1333 157.686 58.08H155.526C155.206 58.1333 154.139 58.16 152.326 58.16L149.366 58.24C148.726 58.24 148.406 58.08 148.406 57.76C148.406 57.6 148.433 57.4667 148.486 57.36C148.593 57.2 148.673 57.04 148.726 56.88L149.606 54.48C150.833 51.0133 151.473 49.2267 151.526 49.12C151.633 48.6933 152.139 47.2533 153.046 44.8L153.686 43.2C153.793 42.9333 153.953 42.5867 154.166 42.16C154.379 41.68 154.486 41.3067 154.486 41.04C154.539 40.72 154.513 40.4267 154.406 40.16C154.299 40 154.059 39.2267 153.686 37.84C153.579 37.52 153.366 36.8267 153.046 35.76C152.726 34.64 152.406 33.7867 152.086 33.2C151.766 32.4 151.339 31.0933 150.806 29.28C150.433 28.0533 150.086 26.96 149.766 26C148.913 23.6533 147.846 20.64 146.566 16.96C145.339 13.28 144.353 10.32 143.606 8.08C143.339 7.22666 142.993 6.37333 142.566 5.52C142.193 4.66666 142.006 4.10666 142.006 3.84C142.006 3.46666 142.193 3.22666 142.566 3.12C142.993 2.96 143.606 2.85333 144.406 2.8C144.619 2.74666 145.046 2.72 145.686 2.72C146.486 2.72 147.126 2.74666 147.606 2.8C149.366 2.8 150.459 2.82666 150.886 2.88C151.313 2.93333 151.579 3.04 151.686 3.2C151.846 3.36 151.926 3.57333 151.926 3.84C151.926 4.10666 151.953 4.34666 152.006 4.56Z" fill="#074782"/>
</svg>
