<svg width="24" height="24" viewBox="0 0 24 24" fill="none" xmlns="http://www.w3.org/2000/svg">
<g clip-path="url(#clip0)">
<path d="M5.31891 14.5043L4.4835 17.6233L1.43011 17.6879C0.517594 15.9952 0 14.0586 0 12.0006C0 10.0105 0.483938 8.13389 1.34175 6.48145H1.34241L4.06078 6.97986L5.25159 9.68216C5.00236 10.4088 4.86652 11.1889 4.86652 12.0006C4.86661 12.8816 5.02617 13.7256 5.31891 14.5043Z" fill="#FBBB00"/>
<path d="M23.7902 9.75781C23.928 10.4837 23.9999 11.2334 23.9999 11.9996C23.9999 12.8587 23.9095 13.6967 23.7375 14.5051C23.1533 17.2558 21.6269 19.6578 19.5124 21.3576L19.5118 21.3569L16.0878 21.1822L15.6032 18.1572C17.0063 17.3343 18.1028 16.0466 18.6804 14.5051H12.2637V9.75781H18.774H23.7902Z" fill="#518EF8"/>
<path d="M19.5124 21.3577L19.5131 21.3584C17.4565 23.0113 14.844 24.0004 12.0001 24.0004C7.43001 24.0004 3.45662 21.4461 1.42969 17.6872L5.31869 14.5039C6.33214 17.2085 8.9413 19.1338 12.0001 19.1338C13.3149 19.1338 14.5467 18.7784 15.6036 18.158L19.5124 21.3577Z" fill="#28B446"/>
<path d="M19.6577 2.76262L15.7706 5.94525C14.6769 5.26153 13.384 4.86656 11.9989 4.86656C8.87132 4.86656 6.21379 6.88017 5.25127 9.68175L1.34245 6.48131H1.3418C3.33874 2.63077 7.36159 0 11.9989 0C14.9102 0 17.5796 1.03716 19.6577 2.76262Z" fill="#F14336"/>
</g>
<defs>
<clipPath id="clip0">
<rect width="24" height="24" fill="white"/>
</clipPath>
</defs>
</svg>
