<svg width="76" height="82" viewBox="0 0 76 82" fill="none" xmlns="http://www.w3.org/2000/svg">
<g filter="url(#filter0_dd)">
<path fill-rule="evenodd" clip-rule="evenodd" d="M38 64C53.464 64 66 51.464 66 36C66 20.536 53.464 8 38 8C22.536 8 10 20.536 10 36C10 51.464 22.536 64 38 64Z" fill="#EB5F34"/>
<path d="M65.75 36C65.75 51.3259 53.3259 63.75 38 63.75C22.6741 63.75 10.25 51.3259 10.25 36C10.25 20.6741 22.6741 8.25 38 8.25C53.3259 8.25 65.75 20.6741 65.75 36Z" stroke="url(#paint0_linear)" stroke-width="0.5"/>
<path d="M65.75 36C65.75 51.3259 53.3259 63.75 38 63.75C22.6741 63.75 10.25 51.3259 10.25 36C10.25 20.6741 22.6741 8.25 38 8.25C53.3259 8.25 65.75 20.6741 65.75 36Z" stroke="url(#paint1_linear)" stroke-width="0.5"/>
</g>
<path fill-rule="evenodd" clip-rule="evenodd" d="M45 35H39V29H37V35H31V37H37V43H39V37H45V35Z" fill="white"/>
<defs>
<filter id="filter0_dd" x="0" y="0" width="76" height="82" filterUnits="userSpaceOnUse" color-interpolation-filters="sRGB">
<feFlood flood-opacity="0" result="BackgroundImageFix"/>
<feColorMatrix in="SourceAlpha" type="matrix" values="0 0 0 0 0 0 0 0 0 0 0 0 0 0 0 0 0 0 127 0"/>
<feOffset dy="8"/>
<feGaussianBlur stdDeviation="5"/>
<feColorMatrix type="matrix" values="0 0 0 0 0 0 0 0 0 0 0 0 0 0 0 0 0 0 0.2 0"/>
<feBlend mode="normal" in2="BackgroundImageFix" result="effect1_dropShadow"/>
<feColorMatrix in="SourceAlpha" type="matrix" values="0 0 0 0 0 0 0 0 0 0 0 0 0 0 0 0 0 0 127 0"/>
<feOffset/>
<feGaussianBlur stdDeviation="4"/>
<feColorMatrix type="matrix" values="0 0 0 0 0 0 0 0 0 0 0 0 0 0 0 0 0 0 0.12 0"/>
<feBlend mode="normal" in2="effect1_dropShadow" result="effect2_dropShadow"/>
<feBlend mode="normal" in="SourceGraphic" in2="effect2_dropShadow" result="shape"/>
</filter>
<linearGradient id="paint0_linear" x1="10.274" y1="8" x2="10.274" y2="63.452" gradientUnits="userSpaceOnUse">
<stop stop-opacity="0"/>
<stop offset="0.8" stop-opacity="0.02"/>
<stop offset="1" stop-opacity="0.04"/>
</linearGradient>
<linearGradient id="paint1_linear" x1="10" y1="8" x2="10" y2="64" gradientUnits="userSpaceOnUse">
<stop stop-color="white" stop-opacity="0.12"/>
<stop offset="0.2" stop-color="white" stop-opacity="0.06"/>
<stop offset="1" stop-color="white" stop-opacity="0"/>
</linearGradient>
</defs>
</svg>
