<svg width="118" height="118" viewBox="0 0 118 118" fill="none" xmlns="http://www.w3.org/2000/svg">
<circle cx="59" cy="59" r="58" stroke="#074782" stroke-opacity="0.6" stroke-width="2"/>
<path d="M59.0001 71.8665C63.713 71.8665 67.5335 68.046 67.5335 63.3331C67.5335 58.6203 63.713 54.7998 59.0001 54.7998C54.2873 54.7998 50.4668 58.6203 50.4668 63.3331C50.4668 68.046 54.2873 71.8665 59.0001 71.8665Z" fill="#074782" fill-opacity="0.6"/>
<path d="M69.667 34.8807C76.547 34.8807 82.1203 40.454 82.1203 47.334H85.667C85.667 38.5073 78.4937 31.334 69.667 31.334V34.8807ZM69.667 42.0007C72.627 42.0007 75.0003 44.374 75.0003 47.334H78.547C78.547 42.4273 74.5737 38.454 69.667 38.454V42.0007Z" fill="#074782" fill-opacity="0.6"/>
<path d="M72.333 49.9993C72.333 47.0393 69.9597 44.666 66.9997 44.666V36.666H50.9997L46.1197 41.9993H37.6663C34.733 41.9993 32.333 44.3993 32.333 47.3327V79.3327C32.333 82.266 34.733 84.666 37.6663 84.666H80.333C83.2663 84.666 85.6663 82.266 85.6663 79.3327V49.9993H72.333ZM58.9997 76.666C51.6397 76.666 45.6663 70.6927 45.6663 63.3327C45.6663 55.9727 51.6397 49.9993 58.9997 49.9993C66.3597 49.9993 72.333 55.9727 72.333 63.3327C72.333 70.6927 66.3597 76.666 58.9997 76.666Z" fill="#074782" fill-opacity="0.6"/>
<line x1="103.685" y1="21.7282" x2="18.6854" y2="101.728" stroke="#074782" stroke-opacity="0.6" stroke-width="2"/>
</svg>
