<svg width="24" height="24" viewBox="0 0 24 24" fill="none" xmlns="http://www.w3.org/2000/svg">
<path d="M18.2399 3.83984H4.79988C3.73428 3.83984 2.87988 4.70384 2.87988 5.75984V19.1998C2.87988 20.2558 3.73428 21.1198 4.79988 21.1198H18.2399C19.3055 21.1198 20.1599 20.2558 20.1599 19.1998V5.75984C20.1599 4.70384 19.3055 3.83984 18.2399 3.83984ZM9.59988 17.2798L4.79988 12.4798L6.15348 11.1262L9.59988 14.563L16.8863 7.27664L18.2399 8.63984L9.59988 17.2798Z" fill="#20598E"/>
<path fill-rule="evenodd" clip-rule="evenodd" d="M4.7164 0C3.70212 0 2.87988 0.822239 2.87988 1.83652H22.1635L22.1635 21.12C23.1778 21.12 24 20.2978 24 19.2835V0H23.9999H22.1635H4.7164Z" fill="#20598E"/>
</svg>
