<svg width="20" height="16" viewBox="0 0 20 16" fill="none" xmlns="http://www.w3.org/2000/svg">
<path d="M0.000766172 8.32283C0.417203 6.03719 1.61648 3.96788 3.39262 2.47026C5.16876 0.972638 7.41094 0.14018 9.73407 0.115847C12.0572 0.0915133 14.3163 0.876825 16.1234 2.33691C17.9306 3.797 19.1729 5.84074 19.6371 8.11715C18.2854 8.39281 16.9982 7.48339 16.2959 6.29599C15.8434 5.53101 15.2553 4.8468 14.5536 4.27989C13.1979 3.18452 11.5031 2.59537 9.76023 2.61362C8.0174 2.63188 6.3353 3.2564 5.00282 4.37992C4.31319 4.96141 3.73948 5.65778 3.30312 6.43208C2.62581 7.63393 1.35798 8.57011 0.000766172 8.32283Z" fill="#4587A4"/>
<path d="M1.2295 7.22387C0.550888 7.34751 0.0934735 8.00145 0.300686 8.65937C0.867825 10.4601 1.93631 12.0724 3.39262 13.3003C5.16876 14.7979 7.41094 15.6304 9.73407 15.6547C12.0572 15.6791 14.3163 14.8937 16.1234 13.4337C17.6052 12.2365 18.7072 10.6469 19.3119 8.8585C19.5329 8.20506 19.0892 7.54169 18.4134 7.40386C17.7375 7.26603 17.0875 7.70806 16.8396 8.35174C16.3689 9.57378 15.5835 10.6586 14.5536 11.4907C13.1979 12.5861 11.5031 13.1752 9.76024 13.1569C8.0174 13.1387 6.3353 12.5142 5.00282 11.3906C3.99059 10.5372 3.22811 9.43615 2.78311 8.20451C2.54872 7.55578 1.90811 7.10023 1.2295 7.22387Z" fill="#4587A4"/>
<circle cx="10" cy="8" r="3" fill="#4587A4"/>
</svg>
