<svg width="23" height="17" viewBox="0 0 23 17" fill="none" xmlns="http://www.w3.org/2000/svg">
<path d="M0.999973 9.32283C1.41641 7.03719 2.61568 4.96788 4.39183 3.47026C6.16797 1.97264 8.41014 1.14018 10.7333 1.11585C13.0564 1.09151 15.3155 1.87682 17.1227 3.33691C18.9298 4.797 20.1721 6.84074 20.6364 9.11715C19.2846 9.39281 17.9975 8.48339 17.2951 7.29599C16.8426 6.53101 16.2545 5.8468 15.5528 5.27989C14.1971 4.18452 12.5023 3.59537 10.7594 3.61362C9.01661 3.63188 7.33451 4.2564 6.00203 5.37992C5.3124 5.96141 4.73869 6.65778 4.30233 7.43208C3.62502 8.63393 2.35719 9.57011 0.999973 9.32283Z" fill="#4587A4"/>
<path d="M2.2287 8.22387C1.55009 8.34751 1.09268 9.00145 1.29989 9.65937C1.86703 11.4601 2.93552 13.0724 4.39183 14.3003C6.16797 15.7979 8.41014 16.6304 10.7333 16.6547C13.0564 16.6791 15.3155 15.8937 17.1227 14.4337C18.6044 13.2365 19.7064 11.6469 20.3111 9.8585C20.5321 9.20506 20.0885 8.54169 19.4126 8.40386C18.7367 8.26603 18.0867 8.70806 17.8388 9.35174C17.3681 10.5738 16.5827 11.6586 15.5528 12.4907C14.1971 13.5861 12.5023 14.1752 10.7594 14.1569C9.01661 14.1387 7.33451 13.5142 6.00203 12.3906C4.9898 11.5372 4.22732 10.4361 3.78232 9.20451C3.54792 8.55578 2.90731 8.10023 2.2287 8.22387Z" fill="#4587A4"/>
<circle cx="10.9992" cy="9" r="3" fill="#4587A4"/>
<line x1="1.65194" y1="2.61131" x2="20.6113" y2="14.3481" stroke="#4587A4" stroke-width="2.4" stroke-linecap="round"/>
</svg>
