<svg width="20" height="16" viewBox="0 0 20 16" fill="none" xmlns="http://www.w3.org/2000/svg">
<path d="M0.000796689 8.32283C0.417234 6.03719 1.61651 3.96788 3.39265 2.47026C5.16879 0.972638 7.41097 0.14018 9.7341 0.115847C12.0572 0.0915133 14.3164 0.876825 16.1235 2.33691C17.9306 3.797 19.173 5.84074 19.6372 8.11715C18.2854 8.39281 16.9983 7.48339 16.2959 6.29599C15.8435 5.53101 15.2553 4.8468 14.5536 4.27989C13.1979 3.18452 11.5031 2.59537 9.76026 2.61362C8.01743 2.63188 6.33533 3.2564 5.00285 4.37992C4.31322 4.96141 3.73951 5.65778 3.30315 6.43208C2.62584 7.63393 1.35801 8.57011 0.000796689 8.32283Z" fill="#4587A4"/>
<path d="M1.22953 7.22387C0.550919 7.34751 0.093504 8.00145 0.300717 8.65937C0.867855 10.4601 1.93634 12.0724 3.39265 13.3003C5.1688 14.7979 7.41097 15.6304 9.7341 15.6547C12.0572 15.6791 14.3164 14.8937 16.1235 13.4337C17.6052 12.2365 18.7072 10.6469 19.3119 8.8585C19.5329 8.20506 19.0893 7.54169 18.4134 7.40386C17.7375 7.26603 17.0875 7.70806 16.8396 8.35174C16.3689 9.57378 15.5835 10.6586 14.5536 11.4907C13.1979 12.5861 11.5031 13.1752 9.76027 13.1569C8.01743 13.1387 6.33533 12.5142 5.00285 11.3906C3.99062 10.5372 3.22814 9.43615 2.78314 8.20451C2.54875 7.55578 1.90814 7.10023 1.22953 7.22387Z" fill="#4587A4"/>
<circle cx="10" cy="8" r="3" fill="#4587A4"/>
</svg>
